<svg width="516" height="609" viewBox="0 0 516 609" fill="none" xmlns="http://www.w3.org/2000/svg">
<path d="M257.723 608.092C400.06 608.092 515.446 601.074 515.446 592.416C515.446 583.758 400.06 576.74 257.723 576.74C115.387 576.74 0 583.758 0 592.416C0 601.074 115.387 608.092 257.723 608.092Z" fill="#CED3E6"/>
<path d="M241.655 155.867L267.687 251.063L258.399 240.369C261.833 242.202 265.819 243.607 270.214 244.586C274.609 245.583 279.413 246.152 284.431 246.401C289.449 246.668 294.68 246.615 300.036 246.401C305.392 246.17 310.855 245.778 316.406 245.298H316.442C324.627 244.604 331.834 250.672 332.527 258.857C333.186 266.668 327.652 273.572 320.054 274.818C314.325 275.725 308.506 276.597 302.545 277.291C296.567 277.985 290.446 278.501 284.111 278.643C277.776 278.786 271.211 278.536 264.413 277.558C257.634 276.579 250.606 274.8 243.737 271.846C239.342 269.942 236.21 266.348 234.787 262.131L234.449 261.134L203.221 167.522C199.716 157.006 205.392 145.618 215.926 142.113C226.442 138.607 237.83 144.283 241.335 154.817C241.442 155.138 241.566 155.529 241.655 155.867Z" fill="#EA9B7A"/>
<path d="M251.673 500.957C251.281 500.957 250.89 500.886 250.498 500.743L114.128 451.58C112.349 450.939 111.423 448.964 112.064 447.185C112.705 445.405 114.68 444.462 116.459 445.121L252.829 494.284C254.609 494.925 255.552 496.9 254.894 498.679C254.413 500.085 253.079 500.957 251.673 500.957Z" fill="#C77E2E"/>
<path d="M109.627 500.957C108.221 500.957 106.904 500.085 106.388 498.679C105.748 496.9 106.673 494.925 108.452 494.266L246.442 444.284C248.221 443.644 250.196 444.569 250.855 446.348C251.495 448.128 250.57 450.103 248.791 450.761L110.801 500.743C110.41 500.886 110.018 500.957 109.627 500.957Z" fill="#C77E2E"/>
<path d="M263.808 588.822C260.908 588.822 258.381 586.669 257.972 583.715L233.345 399.782H130.267L106.014 583.715C105.587 586.936 102.633 589.213 99.4127 588.786C96.1921 588.359 93.9145 585.405 94.3415 582.185L119.27 393.163C119.662 390.227 122.153 388.038 125.107 388.038H238.506C241.459 388.038 243.95 390.227 244.342 393.145L269.662 582.167C270.089 585.388 267.83 588.359 264.609 588.786C264.324 588.804 264.075 588.822 263.808 588.822Z" fill="#FAAF3A"/>
<path d="M205.659 393.91H132.011C108.683 393.91 83.7011 381.134 80.1067 358.092C75.3202 327.255 74.1281 297.415 75.4626 270.013C76.9751 239.034 91.7794 210.209 116.121 190.992C116.121 190.992 130.836 255.102 112.331 343.59C119.413 377.184 205.659 393.91 205.659 393.91Z" fill="#FAAF3A"/>
<path d="M190.303 17.9129C190.303 17.9129 181.548 -3.19042 158.363 0.795352C142.171 3.57116 135.267 23.7491 136.21 54.9236C137.598 100.28 122.26 127.611 122.26 127.611L142.616 132.237C142.633 132.219 194.466 54.461 190.303 17.9129Z" fill="#39393B"/>
<path d="M376.032 510.014H343.132C343.132 510.014 335.516 473.501 332.972 453.038C330.41 432.558 329.093 384.035 329.093 384.035C329.093 384.035 302.883 392.558 248.007 389.337C126.423 382.237 172.527 292.913 172.527 292.913C176.637 298.59 201.797 294.657 219.004 297.362C271.797 302.433 317.563 323.145 345.036 334.995C351.655 337.842 357.527 340.867 362.687 344.052C369.306 348.127 373.452 360.529 375.961 376.81C383.452 425.761 376.032 510.014 376.032 510.014Z" fill="#39393B"/>
<path d="M347.225 492.416C346.673 492.416 346.193 492.024 346.068 491.473C341.317 467.985 339.734 438.75 338.452 415.263C337.385 395.778 336.388 377.38 333.879 375.173C331.851 373.376 323.435 374.782 312.794 376.544C291.602 380.067 259.573 385.369 224.271 377.166C205.036 372.682 190.89 363.341 182.242 349.39C167.313 325.333 174.128 295.493 174.199 295.191C174.342 294.55 174.982 294.159 175.623 294.319C176.263 294.461 176.655 295.102 176.495 295.743C176.423 296.027 169.858 324.942 184.27 348.163C192.58 361.561 206.228 370.547 224.822 374.871C259.68 382.985 291.424 377.718 312.438 374.23C325.018 372.149 332.616 370.885 335.481 373.412C338.577 376.152 339.449 389.604 340.837 415.138C342.118 438.554 343.702 467.683 348.417 491.01C348.541 491.651 348.132 492.273 347.492 492.398C347.367 492.416 347.296 492.416 347.225 492.416Z" fill="#585859"/>
<path d="M376.655 493.038H376.637L340.054 492.255C339.395 492.238 338.879 491.704 338.897 491.045C338.915 490.387 339.449 489.871 340.107 489.889L376.691 490.672C377.349 490.69 377.865 491.223 377.847 491.882C377.829 492.522 377.296 493.038 376.655 493.038Z" fill="#585859"/>
<path d="M375.125 552.149H351.904L347.438 524.925L344.982 510.014H373.826L374.289 524.925L375.125 552.149Z" fill="#EA9B7A"/>
<path d="M375.125 552.149H351.904L348.577 531.882L347.438 524.925H374.289L374.52 532.131L375.125 552.149Z" fill="#FAAF3A"/>
<path d="M374.52 532.131L348.577 531.882L347.438 524.925H374.289L374.52 532.131Z" fill="#C77E2E"/>
<path d="M432.42 588.822H344.609C343.95 587.629 343.595 585.957 343.452 583.946C342.901 576.508 345.267 564.658 346.424 557.185C346.566 556.313 346.691 555.494 346.78 554.765C346.94 553.519 347.047 552.469 347.047 551.704C347.047 545.601 352.438 546.651 352.438 546.651C361.317 555.37 371.388 542.291 377.26 546.58C377.26 546.58 377.491 546.757 378.043 547.167C378.541 547.558 379.289 548.163 380.321 549.035C381.815 550.281 383.915 552.096 386.762 554.658C393.737 560.939 405.588 565.067 415.677 569.284C416.958 569.818 418.15 570.37 419.271 570.903C420.107 571.313 420.908 571.722 421.655 572.113C429.912 576.562 432.527 580.832 433.132 583.928C433.719 586.918 432.42 588.822 432.42 588.822Z" fill="#0875F7"/>
<path d="M421.673 572.131C419.413 573.928 414.378 577.54 410.338 577.54C410.16 577.54 409.983 577.54 409.805 577.523C406.958 577.291 396.495 572.149 387.972 567.469C383.096 564.782 378.63 562.149 375.427 560.031C370.178 556.562 369.253 555.245 369.057 554.32C368.292 550.85 374.022 548.448 378.043 547.184C378.541 547.576 379.289 548.181 380.321 549.053C375.338 550.405 371.228 552.54 371.424 553.768C371.922 554.8 377.118 558.75 389.538 565.565C399.022 570.761 408.007 574.943 410 575.12C412.705 575.334 416.673 572.878 419.271 570.939C420.125 571.33 420.926 571.74 421.673 572.131Z" fill="#084FC7"/>
<path d="M432.42 588.822H344.609C343.95 587.629 343.594 585.957 343.452 583.946H433.15C433.719 586.918 432.42 588.822 432.42 588.822Z" fill="#084FC7"/>
<path d="M353.559 588.822H350.943C353.541 585.85 355.979 581.277 355.658 574.765C355.231 566.081 350.036 560.245 346.406 557.184C346.548 556.313 346.673 555.494 346.762 554.764C350.658 557.736 357.224 564.266 357.74 574.658C358.078 580.886 356.032 585.53 353.559 588.822Z" fill="#084FC7"/>
<path d="M385.285 559.854C384.644 559.854 384.039 559.409 383.879 558.75C383.683 557.967 384.164 557.184 384.929 556.989L390.41 555.619C391.192 555.423 391.975 555.903 392.171 556.668C392.367 557.451 391.886 558.234 391.121 558.43L385.641 559.8C385.516 559.836 385.392 559.854 385.285 559.854Z" fill="white"/>
<path d="M379.84 555.299C379.2 555.299 378.595 554.854 378.434 554.195C378.239 553.412 378.719 552.63 379.484 552.434L384.965 551.064C385.748 550.868 386.531 551.348 386.726 552.114C386.922 552.896 386.442 553.679 385.676 553.857L380.196 555.227C380.071 555.281 379.947 555.299 379.84 555.299Z" fill="white"/>
<path d="M390.765 563.039C390.125 563.039 389.52 562.594 389.36 561.936C389.164 561.153 389.644 560.37 390.409 560.192L395.89 558.822C396.673 558.626 397.456 559.106 397.651 559.871C397.847 560.654 397.367 561.437 396.602 561.633L391.121 563.003C390.997 563.039 390.89 563.039 390.765 563.039Z" fill="white"/>
<path d="M396.246 566.117C395.587 566.117 395 565.672 394.84 565.014C394.644 564.231 395.125 563.448 395.89 563.252L401.37 561.882C402.153 561.686 402.936 562.167 403.132 562.932C403.328 563.715 402.847 564.498 402.082 564.676L396.602 566.046C396.495 566.099 396.37 566.117 396.246 566.117Z" fill="white"/>
<path d="M402.242 568.946C401.602 568.946 400.997 568.501 400.837 567.843C400.641 567.06 401.121 566.277 401.887 566.099L407.367 564.729C408.15 564.533 408.933 565.014 409.129 565.779C409.324 566.562 408.844 567.345 408.079 567.54L402.598 568.911C402.474 568.928 402.349 568.946 402.242 568.946Z" fill="white"/>
<path d="M408.719 571.366C408.079 571.366 407.474 570.921 407.314 570.263C407.118 569.48 407.598 568.697 408.364 568.501L413.844 567.131C414.627 566.935 415.41 567.416 415.606 568.181C415.801 568.964 415.321 569.747 414.556 569.925L409.075 571.295C408.951 571.348 408.844 571.366 408.719 571.366Z" fill="white"/>
<path d="M111.637 264.586C111.637 264.586 110.605 271.685 120.107 273.678L219.182 276.988C219.182 276.988 225.872 273.625 224.662 265.333C224.662 265.315 182.829 241.81 111.637 264.586Z" fill="#084FC7"/>
<path d="M220.534 297.344C169.11 325.636 112.954 302.86 112.954 302.86C115.694 295.369 117.74 286.917 119.217 279.23C120.925 270.28 121.886 262.38 122.331 258.234C144.199 257.041 197.829 254.746 218.844 259.728L219.004 268.145L220.534 297.344Z" fill="#EA9B7A"/>
<path d="M182.544 283.786C182.171 286.437 180.961 288.465 179.875 288.305C178.772 288.145 178.203 285.867 178.576 283.216C178.95 280.565 180.16 278.536 181.245 278.697C182.349 278.857 182.918 281.134 182.544 283.786Z" fill="#D96C63"/>
<path d="M218.986 268.145C197.082 266.81 154.004 266.348 119.199 279.213C120.907 270.262 121.868 262.362 122.313 258.216C144.181 257.024 197.812 254.728 218.826 259.711L218.986 268.145Z" fill="#D96C63"/>
<path d="M243.417 227.451C243.203 228.091 242.954 228.678 242.669 229.23C242.563 229.443 242.456 229.657 242.349 229.853C239.591 234.959 235.338 239.39 231.762 242.54C231.015 243.198 230.303 243.785 229.644 244.319C228.328 245.387 227.207 246.223 226.442 246.774C225.73 247.273 225.321 247.54 225.321 247.54C225.321 247.593 225.321 247.629 225.303 247.7C225.267 248.073 225.232 248.483 225.196 248.91C225.071 250.529 224.965 252.451 224.894 254.657C224.822 256.419 224.769 258.358 224.733 260.458C224.716 262.006 224.68 263.625 224.662 265.298C195.605 252.308 135.747 260.511 111.637 264.568C112.082 262.486 112.473 260.44 112.847 258.447C114.555 249.248 115.516 240.974 115.89 233.554C116.459 222.522 115.498 205.938 113.149 188.803C113.007 187.682 112.847 186.579 112.687 185.475C112.58 184.746 112.473 184.034 112.349 183.305C111.53 177.931 110.569 172.539 109.484 167.308C104.733 144.497 108.06 120.564 131.192 117.735C132.865 117.521 134.52 117.344 136.139 117.166C147.029 116.009 155.997 115.6 158.488 115.511C158.95 115.493 159.182 115.493 159.182 115.493L203.879 128.482L208.132 129.71C210.57 130.493 212.829 131.258 214.929 132.005C215.819 132.326 216.691 132.646 217.509 132.949C219.68 133.767 221.637 134.55 223.434 135.351C227.011 136.934 229.84 138.482 232.082 140.066C241.886 147.023 240.374 154.888 240.125 170.422C240.125 170.493 240.125 170.564 240.125 170.635C240.125 170.831 240.125 171.027 240.125 171.24C240.125 171.329 240.125 171.418 240.125 171.507C240.125 172.148 240.125 172.771 240.125 173.411C240.143 175.422 240.214 177.415 240.338 179.408C240.499 182.344 240.765 185.262 241.086 188.109C241.21 189.248 241.335 190.386 241.477 191.525C241.602 192.593 241.744 193.643 241.886 194.692C243.63 208.287 245.854 220.209 243.417 227.451Z" fill="#0875F7"/>
<path d="M240.107 170.635C240.107 170.831 240.107 171.027 240.107 171.24C240.107 171.329 240.107 171.418 240.107 171.507C240.107 172.148 240.107 172.771 240.107 173.411L230.712 179.301C230.427 179.479 230.107 179.532 229.787 179.479C229.431 179.425 229.111 179.212 228.897 178.892C228.506 178.269 228.701 177.468 229.306 177.077L239.271 170.831C239.52 170.671 239.822 170.618 240.107 170.635Z" fill="#084FC7"/>
<path d="M178.185 220.956C177.829 220.956 177.473 220.813 177.206 220.529C176.726 219.995 176.762 219.159 177.295 218.678L186.032 210.813C186.566 210.333 187.402 210.369 187.883 210.902C188.363 211.436 188.327 212.273 187.794 212.753L179.057 220.618C178.808 220.831 178.488 220.956 178.185 220.956Z" fill="#084FC7"/>
<path d="M241.851 194.692L235.872 200.084C235.623 200.315 235.303 200.422 235 200.422C234.644 200.422 234.288 200.28 234.021 199.995C233.541 199.461 233.577 198.625 234.11 198.144L241.441 191.543C241.566 192.593 241.708 193.643 241.851 194.692Z" fill="#084FC7"/>
<path d="M160.463 189.319C160.267 189.016 160.178 188.642 160.267 188.269C160.427 187.557 161.139 187.13 161.851 187.29L173.292 189.995C174.004 190.155 174.431 190.867 174.271 191.578C174.11 192.29 173.399 192.717 172.687 192.557L161.246 189.852C160.908 189.781 160.641 189.585 160.463 189.319Z" fill="#084FC7"/>
<path d="M119.626 211.774C119.27 211.774 118.914 211.632 118.647 211.347C118.167 210.814 118.203 209.977 118.736 209.497L127.473 201.632C128.007 201.152 128.843 201.187 129.324 201.721C129.804 202.255 129.768 203.091 129.235 203.572L120.498 211.436C120.249 211.668 119.946 211.774 119.626 211.774Z" fill="#084FC7"/>
<path d="M221.335 209.906C221.442 209.568 221.708 209.265 222.047 209.123C222.705 208.838 223.488 209.141 223.773 209.799L228.47 220.582C228.755 221.241 228.452 222.023 227.794 222.308C227.136 222.593 226.353 222.29 226.068 221.632L221.37 210.849C221.246 210.529 221.246 210.191 221.335 209.906Z" fill="#084FC7"/>
<path d="M243.417 227.451C243.203 228.091 242.954 228.678 242.669 229.23C242.563 229.443 242.456 229.657 242.349 229.853L235.961 227.842C235.641 227.735 235.392 227.522 235.232 227.255C235.054 226.952 234.983 226.561 235.107 226.205C235.321 225.511 236.068 225.137 236.744 225.351L243.417 227.451Z" fill="#084FC7"/>
<path d="M207.331 228.394C207.687 228.358 208.06 228.465 208.345 228.732C208.879 229.212 208.914 230.048 208.434 230.582L200.534 239.283C200.053 239.817 199.217 239.853 198.683 239.372C198.149 238.892 198.114 238.056 198.594 237.522L206.495 228.821C206.726 228.572 207.028 228.429 207.331 228.394Z" fill="#084FC7"/>
<path d="M202.687 208.322C202.331 208.269 202.011 208.055 201.797 207.735C201.406 207.13 201.601 206.312 202.206 205.92L212.171 199.675C212.776 199.283 213.594 199.479 213.986 200.084C214.377 200.689 214.182 201.507 213.577 201.899L203.612 208.144C203.327 208.322 202.989 208.376 202.687 208.322Z" fill="#084FC7"/>
<path d="M209.039 170.458C209.271 170.724 209.413 171.08 209.36 171.472C209.288 172.184 208.63 172.717 207.918 172.628L196.228 171.347C195.516 171.276 194.982 170.618 195.071 169.906C195.142 169.194 195.801 168.66 196.513 168.749L208.203 170.031C208.523 170.066 208.826 170.226 209.039 170.458Z" fill="#084FC7"/>
<path d="M192.046 145.102C192.135 144.746 192.367 144.443 192.705 144.265C193.345 143.927 194.146 144.159 194.484 144.799L200.054 155.155C200.392 155.796 200.16 156.596 199.52 156.934C198.879 157.272 198.078 157.041 197.74 156.401L192.171 146.045C191.993 145.742 191.957 145.404 192.046 145.102Z" fill="#084FC7"/>
<path d="M231.78 242.557C231.032 243.216 230.321 243.803 229.662 244.337L228.132 240.422C228.007 240.102 228.007 239.782 228.132 239.479C228.257 239.141 228.523 238.856 228.879 238.714C229.555 238.447 230.321 238.785 230.588 239.461L231.78 242.557Z" fill="#084FC7"/>
<path d="M124.306 222.629C124.128 222.308 124.092 221.935 124.235 221.561C124.484 220.885 125.231 220.529 125.907 220.778L136.975 224.764C137.651 225.013 138.007 225.76 137.758 226.436C137.509 227.113 136.762 227.468 136.085 227.219L125.018 223.234C124.697 223.145 124.448 222.913 124.306 222.629Z" fill="#084FC7"/>
<path d="M129.715 237.593C130.071 237.593 130.427 237.753 130.694 238.038C131.175 238.572 131.121 239.408 130.587 239.888L121.779 247.682C121.246 248.162 120.409 248.109 119.929 247.575C119.449 247.041 119.502 246.205 120.036 245.725L128.844 237.931C129.093 237.7 129.413 237.593 129.715 237.593Z" fill="#084FC7"/>
<path d="M145.676 249.96C145.89 250.244 146.014 250.618 145.943 250.992C145.819 251.703 145.142 252.184 144.431 252.059L132.847 250.084C132.135 249.959 131.655 249.283 131.779 248.572C131.904 247.86 132.58 247.379 133.292 247.504L144.876 249.479C145.196 249.532 145.481 249.71 145.676 249.96Z" fill="#084FC7"/>
<path d="M155.374 139.888C155.285 139.55 155.32 139.159 155.534 138.838C155.925 138.233 156.744 138.055 157.349 138.447L167.224 144.817C167.829 145.208 168.007 146.027 167.616 146.632C167.224 147.237 166.406 147.415 165.801 147.023L155.925 140.653C155.64 140.457 155.445 140.191 155.374 139.888Z" fill="#084FC7"/>
<path d="M222.776 147.397C223.096 147.219 223.47 147.183 223.843 147.308C224.52 147.557 224.876 148.304 224.644 148.981L220.712 160.066C220.463 160.742 219.715 161.098 219.039 160.867C218.363 160.618 218.007 159.87 218.239 159.194L222.171 148.109C222.278 147.806 222.509 147.557 222.776 147.397Z" fill="#084FC7"/>
<path d="M217.491 132.966L211.424 140.76C210.979 141.329 210.16 141.436 209.591 140.991C209.022 140.546 208.915 139.728 209.36 139.159L214.911 132.041C215.801 132.326 216.673 132.646 217.491 132.966Z" fill="#084FC7"/>
<path d="M158.114 240.493C158.239 240.867 158.559 241.134 158.915 241.205C159.093 241.241 159.288 241.241 159.466 241.169C159.662 241.098 178.683 234.942 198.684 243.234C208.844 247.451 217.883 249.052 225.196 248.91C225.232 248.483 225.267 248.091 225.303 247.7C225.303 247.646 225.321 247.593 225.321 247.557C225.321 247.557 225.73 247.29 226.442 246.792C219.253 247.148 210.054 245.618 199.502 241.258C178.737 232.646 159.591 238.874 158.79 239.141C158.239 239.337 157.936 239.942 158.114 240.493Z" fill="#084FC7"/>
<path d="M203.861 128.482C201.352 132.361 196.192 136.756 185.729 136.009C171.299 134.959 161.797 121.187 158.487 115.529C158.932 115.511 159.181 115.511 159.181 115.511L203.861 128.482Z" fill="#084FC7"/>
<path d="M188.523 154.034C188.95 154.123 189.377 154.176 189.804 154.212C193.79 154.532 197.029 153.376 199.413 150.778C206.353 143.198 203.506 125.902 203.381 125.173C203.274 124.586 202.723 124.194 202.153 124.301C201.566 124.408 201.175 124.959 201.281 125.529C201.317 125.707 204.075 142.522 197.847 149.337C195.908 151.454 193.328 152.361 190 152.095C176.014 150.974 160.338 115.44 160.178 115.084C159.947 114.55 159.306 114.301 158.772 114.532C158.239 114.763 157.989 115.404 158.221 115.938C158.826 117.415 173.701 151.027 188.523 154.034Z" fill="white"/>
<path d="M232.082 140.066C231.157 150.315 233.683 167.237 240.303 179.408C240.142 176.792 240.071 174.141 240.107 171.507C240.107 171.418 240.107 171.329 240.107 171.241C240.107 170.974 240.125 170.707 240.125 170.44C240.356 154.906 241.868 147.023 232.082 140.066Z" fill="#EA9B7A"/>
<path d="M149.857 158.109C144.733 177.895 125.978 193.767 113.167 188.821C113.007 187.717 112.864 186.596 112.704 185.493C112.598 184.764 112.491 184.052 112.366 183.322C111.548 177.949 110.587 172.557 109.501 167.326C104.751 144.514 108.096 120.582 131.21 117.753C132.882 117.539 134.537 117.361 136.156 117.183C147.704 122.112 155.765 135.333 149.857 158.109Z" fill="#EA9B7A"/>
<path d="M152.491 143.02L182.527 252.878L171.815 240.529C175.783 242.628 180.374 244.266 185.463 245.404C190.534 246.543 196.085 247.201 201.868 247.504C207.669 247.806 213.701 247.753 219.876 247.504C226.05 247.255 232.367 246.792 238.772 246.241H238.808C248.256 245.44 256.566 252.433 257.367 261.881C258.132 270.885 251.744 278.874 242.954 280.298C236.353 281.347 229.627 282.344 222.74 283.145C215.854 283.945 208.79 284.533 201.459 284.71C194.146 284.871 186.566 284.604 178.737 283.465C170.925 282.326 162.811 280.298 154.875 276.863C149.804 274.675 146.192 270.511 144.555 265.653L144.181 264.515L108.132 156.472C104.075 144.336 110.64 131.205 122.776 127.148C134.911 123.091 148.043 129.657 152.1 141.792C152.26 142.183 152.384 142.646 152.491 143.02Z" fill="#EA9B7A"/>
<path d="M165.943 249.372C165.64 249.372 165.338 249.212 165.178 248.928C164.929 248.5 165.089 247.967 165.516 247.718C165.8 247.557 172.366 243.856 179.235 243.323C179.733 243.287 180.16 243.643 180.196 244.141C180.231 244.639 179.875 245.066 179.377 245.102C172.918 245.6 166.459 249.23 166.405 249.266C166.245 249.337 166.085 249.372 165.943 249.372Z" fill="#D96C63"/>
<path d="M176.868 245.404C176.708 245.404 176.548 245.369 176.406 245.28C172.26 242.771 167.242 242.379 167.189 242.379C166.69 242.344 166.335 241.917 166.37 241.436C166.406 240.938 166.815 240.582 167.313 240.618C167.527 240.636 172.811 241.027 177.313 243.767C177.74 244.016 177.865 244.568 177.616 244.995C177.456 245.244 177.153 245.404 176.868 245.404Z" fill="#D96C63"/>
<path d="M203.648 187.504C216.94 190.191 222.758 176.454 222.812 176.312C223.043 175.76 222.776 175.137 222.224 174.924C221.673 174.693 221.05 174.959 220.836 175.511C220.623 176.027 215.605 187.753 204.075 185.422C191.957 182.967 169.359 159.141 169.146 158.892C168.737 158.465 168.061 158.447 167.633 158.856C167.206 159.265 167.189 159.942 167.598 160.369C168.523 161.347 190.89 184.906 203.648 187.504Z" fill="#084FC7"/>
<path d="M182.758 100.973C182.758 100.973 161.424 96.9521 155.409 75.4218C149.68 54.9235 154.093 44.2829 160.054 33.2153C164.538 24.8701 178.772 13.6067 198.719 17.6459C218.861 21.7206 233.933 32.0765 236.157 48.6424C240.303 79.6389 215.303 117.45 182.758 100.973Z" fill="#39393B"/>
<path d="M156.406 78.7491C156.014 78.7491 155.64 78.5534 155.445 78.1797C155.053 77.5035 146.085 61.3647 153.541 40.1191C158.203 26.845 167.367 20.9198 174.253 18.2685C181.69 15.4037 187.936 15.6884 188.203 15.6884C188.808 15.724 189.288 16.24 189.253 16.8628C189.217 17.4678 188.719 17.9482 188.096 17.9126C188.043 17.9126 181.975 17.6635 174.964 20.3681C165.641 23.9802 159.146 30.8664 155.64 40.8486C148.541 61.0978 157.295 76.9164 157.384 77.0765C157.687 77.6103 157.509 78.2864 156.975 78.5889C156.779 78.6957 156.601 78.7491 156.406 78.7491Z" fill="#FAAF3A"/>
<path d="M224.129 79.0874C224.129 79.0874 231.068 73.6069 232.901 80.8667C234.734 88.1265 229.573 101.027 221.495 97.1123L224.129 79.0874Z" fill="#D96C63"/>
<path d="M217.349 92.4326C213.897 93.5714 210.855 96.6319 210.072 100.422C208.933 106.08 212.598 111.596 218.239 112.753C223.897 113.892 229.413 110.226 230.57 104.586C231.424 100.351 229.591 96.1871 226.228 93.8917C225.107 93.1088 223.808 92.5572 222.385 92.2725C222.349 92.2725 222.314 92.2547 222.278 92.2547C222.082 92.9664 222.154 93.5358 222.563 93.9807C223.702 94.2832 224.734 94.7992 225.641 95.4753C228.257 97.4682 229.662 100.831 228.969 104.265C228.008 109.034 223.328 112.13 218.559 111.169C213.791 110.208 210.694 105.529 211.655 100.76C212.367 97.2903 214.929 94.8348 218.15 94.0518L217.349 92.4326Z" fill="#FAAF3A"/>
<path d="M203.096 110.208L200.196 128.394C200.196 128.394 186.584 142.29 161.726 117.362C168.399 112.397 170.943 100.867 170.16 93.4291C170.16 93.4291 172.118 94.6035 175.142 97.3437C175.73 97.8775 176.495 98.2867 177.224 98.8028C183.79 103.251 193.861 109.07 203.096 110.208Z" fill="#EA9B7A"/>
<path d="M203.096 110.208L201.726 118.821C194.271 115.493 181.086 108.393 175.143 97.3258C175.783 97.7884 176.495 98.2689 177.224 98.7849C183.79 103.251 193.862 109.07 203.096 110.208Z" fill="#39393B"/>
<path d="M230.854 74.7103C230.463 76.632 230.107 78.4647 229.733 80.2085C229.342 82.0946 228.968 83.874 228.595 85.5466C225.837 98.1267 223.577 104.87 219.911 107.397C201.353 120.155 171.157 94.3188 170.178 93.4825C170.16 93.4647 170.16 93.4647 170.16 93.4647C170.143 91.9879 170.143 90.511 170.16 89.0697C170.392 76.8277 172.473 65.8312 175.783 55.671C177.438 44.5678 186.05 35.671 197.135 33.9984C208.63 32.2724 217.278 38.9272 222.687 41.8632C230.854 46.3116 234.057 58.6782 230.854 74.7103Z" fill="#EA9B7A"/>
<path d="M176.423 44.2474C176.423 44.2474 189.413 19.2652 215.32 26.2403C241.228 33.2154 242.598 45.2439 243.061 51.2581C243.523 57.2724 229.644 46.614 229.644 46.614C229.644 46.614 229.164 58.6425 224.537 54.9414C218.861 50.3862 212.527 40.5819 212.527 40.5819C212.527 40.5819 197.1 55.7421 182.438 51.6496C174.092 49.3364 176.423 44.2474 176.423 44.2474Z" fill="#39393B"/>
<path d="M208.239 99.2121C204.876 99.2121 202.562 96.8811 202.456 96.7566C202.1 96.3829 202.1 95.7957 202.473 95.4398C202.847 95.084 203.416 95.084 203.772 95.4576C203.897 95.5822 206.566 98.2334 210.089 97.0235C210.57 96.8633 211.103 97.1125 211.263 97.5929C211.424 98.0733 211.175 98.6071 210.694 98.7672C209.84 99.0875 209.021 99.2121 208.239 99.2121Z" fill="#D96C63"/>
<path d="M200.498 84.0875C200.498 84.0875 212.989 87.7886 219.466 87.7886C219.466 87.7886 216.228 97.0413 206.975 93.8029C199.769 91.2762 200.498 84.0875 200.498 84.0875Z" fill="white"/>
<path d="M223.683 58.0732C223.683 58.0732 220.445 57.7351 220.961 60.8846C221.495 64.0341 228.523 62.1123 232.011 68.4113C232.011 68.4113 235.374 61.8098 223.683 58.0732Z" fill="#39393B"/>
<path d="M209.253 55.1548C209.253 55.1548 212.367 56.1157 210.659 58.8025C208.951 61.4894 203.221 56.9876 197.563 61.436C197.563 61.436 197.047 54.0516 209.253 55.1548Z" fill="#39393B"/>
<path d="M203.63 77.6995C203.328 79.1764 200.036 79.7635 196.246 78.9984C192.474 78.2333 189.662 76.4183 189.965 74.9237C190.267 73.4468 193.559 72.8596 197.349 73.6248C201.121 74.3899 203.933 76.2226 203.63 77.6995Z" fill="#D96C63"/>
<path d="M240.498 78.6782L230.409 76.9522C230.356 77.3793 230.249 77.8063 230.16 78.2156C230.142 78.2867 230.124 78.3579 230.089 78.4291L240.249 80.1551C240.658 80.2262 241.05 79.9415 241.121 79.5323C241.192 79.1408 240.925 78.7494 240.498 78.6782Z" fill="white"/>
<path d="M213.559 70.0659C213.559 69.5499 213.541 69.0339 213.47 68.5357C213.132 65.7954 211.922 63.2687 210.071 61.3114C208.363 59.5143 206.139 58.1975 203.559 57.6281C203.523 57.6103 203.47 57.6103 203.434 57.5925C197.527 56.3826 191.708 59.4787 189.306 64.7456C189.092 65.2082 188.914 65.6709 188.754 66.1513C188.612 66.5783 188.505 67.0232 188.398 67.468C187.722 70.7776 188.381 74.0517 190.035 76.7207C190.605 77.6282 191.281 78.4645 192.046 79.194C193.719 80.8132 195.836 81.9876 198.274 82.4859C202.384 83.34 206.423 82.0944 209.324 79.4965C211.281 77.7527 212.722 75.3684 213.292 72.6104C213.292 72.5926 213.292 72.5926 213.292 72.5748C213.47 71.7385 213.559 70.9022 213.559 70.0659ZM198.594 81.009C198.523 80.9912 198.47 80.9912 198.416 80.9734C195.231 80.2616 192.651 78.2332 191.139 75.5819C189.84 73.2865 189.324 70.5463 189.893 67.7705C190.018 67.2011 190.178 66.6495 190.374 66.1157C190.391 66.0801 190.409 66.0445 190.409 66.009C191.993 61.8986 195.854 59.105 200.196 58.8559C201.157 58.8025 202.135 58.8559 203.132 59.0694C205.267 59.5143 207.117 60.5285 208.594 61.9342C211.299 64.5143 212.651 68.3933 211.851 72.3079C210.569 78.3577 204.644 82.2723 198.594 81.009Z" fill="white"/>
<path d="M236.174 64.8703C235.836 64.6923 235.48 64.5322 235.107 64.372C234.68 64.1941 234.235 64.0517 233.79 63.9094C233.47 63.8204 233.167 63.7315 232.829 63.6781C232.224 63.5535 231.637 63.4824 231.05 63.4468C230.338 63.3934 229.626 63.4112 228.932 63.5002C226.993 63.7137 225.16 64.3543 223.541 65.3685C221.762 66.4717 220.249 68.0197 219.217 69.8881C218.932 70.3685 218.701 70.8667 218.488 71.3649C218.47 71.4005 218.47 71.4183 218.452 71.4539C218.185 72.1301 217.972 72.8418 217.811 73.5714C216.797 78.4824 218.772 83.3223 222.491 86.2048C223.701 87.1479 225.089 87.8774 226.619 88.3223C226.851 88.3935 227.082 88.4646 227.331 88.5002C227.456 88.5358 227.562 88.5536 227.687 88.5892C228.915 88.8383 230.142 88.9095 231.335 88.8027C231.53 88.7849 231.726 88.7671 231.904 88.7493C232.42 88.6782 232.936 88.5892 233.452 88.4468C234.395 88.1977 235.32 87.8418 236.174 87.397C239.431 85.6888 241.922 82.5927 242.722 78.7137C243.879 73.0198 241.05 67.4326 236.174 64.8703ZM241.228 78.3934C241.174 78.6425 241.121 78.8739 241.05 79.1052C240.961 79.4433 240.854 79.7635 240.73 80.1016C239.84 82.4682 238.203 84.3899 236.139 85.6532C235.392 86.1159 234.573 86.4895 233.719 86.7742C233.185 86.9522 232.651 87.0767 232.082 87.1657C231.922 87.2013 231.762 87.2191 231.601 87.2369C230.427 87.3792 229.199 87.3436 227.972 87.0945C227.865 87.0767 227.74 87.0411 227.633 87.0234C227.562 87.0056 227.491 86.9878 227.438 86.97C225.641 86.5073 224.039 85.6176 222.74 84.4255C222.545 84.2475 222.367 84.0696 222.189 83.8917C219.715 81.3294 218.505 77.6105 219.27 73.856C219.448 73.0197 219.715 72.2012 220.053 71.4539C221.174 68.9984 223.132 67.0945 225.498 65.9735C226.957 65.2795 228.577 64.9058 230.249 64.9058C230.516 64.9058 230.783 64.9236 231.068 64.9414C231.548 64.977 232.029 65.0482 232.509 65.1372C232.865 65.2083 233.203 65.2973 233.541 65.4041C234.004 65.5464 234.448 65.7244 234.893 65.9201C235.231 66.0802 235.569 66.2582 235.908 66.4361C239.947 68.8026 242.224 73.5536 241.228 78.3934Z" fill="white"/>
<path d="M173.221 67.0409C173.132 67.0231 173.043 66.9875 172.971 66.9341C172.616 66.7028 172.527 66.2401 172.74 65.9021C177.794 58.0017 189.947 65.1014 190.053 65.1725C190.409 65.3861 190.534 65.8487 190.32 66.2046C190.107 66.5605 189.644 66.685 189.288 66.4715C189.181 66.4003 178.274 60.048 174.004 66.7206C173.843 66.9697 173.523 67.0942 173.221 67.0409Z" fill="white"/>
<path d="M219.022 71.792C218.826 71.7564 218.666 71.6319 218.541 71.4717C216.922 68.9806 213.47 70.1016 213.435 70.1016C213.043 70.2262 212.616 70.0127 212.492 69.6212C212.367 69.2297 212.58 68.8027 212.972 68.6781C214.556 68.1443 218.025 67.8774 219.823 70.6532C220.054 71.0091 219.947 71.4717 219.591 71.6852C219.413 71.792 219.218 71.8276 219.022 71.792Z" fill="white"/>
<g opacity="0.8">
<g opacity="0.8">
<g opacity="0.8">
<g opacity="0.8">
<g opacity="0.8">
<g opacity="0.8">
<g opacity="0.8">
<path opacity="0.8" d="M229.734 80.2083C229.342 82.0944 228.968 83.8738 228.595 85.5464C225.161 84.7101 222.687 83.0197 222.972 81.614C223.274 80.2261 226.228 79.6211 229.734 80.2083Z" fill="#D96C63"/>
</g>
</g>
</g>
</g>
</g>
</g>
</g>
<path d="M206.281 70.2439C205.872 72.2901 204.609 73.7492 203.47 73.5179C202.331 73.2866 201.744 71.4538 202.153 69.4076C202.562 67.3613 203.826 65.9022 204.965 66.1335C206.103 66.3649 206.691 68.1976 206.281 70.2439Z" fill="#39393B"/>
<path d="M226.459 74.3365C226.05 76.3827 224.787 77.8418 223.648 77.6105C222.509 77.3792 221.922 75.5464 222.331 73.5002C222.741 71.4539 224.004 69.9948 225.143 70.2261C226.282 70.4575 226.869 72.2902 226.459 74.3365Z" fill="#39393B"/>
<path d="M216.032 79.8167C217.011 80.0124 217.705 79.9768 217.758 79.9768C217.989 79.959 218.221 79.8523 218.381 79.6743C218.541 79.4964 218.594 79.2473 218.577 79.016L217.278 69.4963C217.206 69.0337 216.779 68.6956 216.317 68.7668C215.854 68.838 215.516 69.265 215.587 69.7277L216.744 78.2153C215.89 78.0907 214.609 77.7348 213.452 76.7739C213.096 76.4715 212.545 76.5249 212.242 76.8807C211.94 77.2366 211.993 77.7882 212.349 78.0907C213.612 79.1227 214.982 79.6031 216.032 79.8167Z" fill="#39393B"/>
<path d="M178.506 86.543C178.363 86.7566 174.413 92.4327 170.196 93.4648C170.178 93.447 170.178 93.447 170.178 93.447C170.143 91.9701 170.16 90.4932 170.178 89.0519C170.321 89.0697 174.342 89.1765 178.506 86.543Z" fill="#39393B"/>
<path d="M177.634 71.6317C177.634 71.6317 171.691 59.0338 163.986 66.4182C157.634 72.5214 163.185 92.8773 174.217 88.5179L177.634 71.6317Z" fill="#EA9B7A"/>
<path d="M163.025 82.5037C159.573 83.6425 156.53 86.703 155.747 90.493C154.609 96.1514 158.274 101.667 163.915 102.824C169.573 103.963 175.089 100.297 176.246 94.6567C177.1 90.4218 175.267 86.2581 171.904 83.9628C170.783 83.1798 169.484 82.6282 168.061 82.3435C168.025 82.3435 167.989 82.3257 167.954 82.3257C167.758 83.0375 167.847 83.6069 168.239 84.0517C169.377 84.3542 170.409 84.8702 171.317 85.5464C173.933 87.5393 175.338 90.9023 174.644 94.3365C173.683 99.1052 169.004 102.201 164.235 101.24C159.466 100.28 156.37 95.5998 157.331 90.8311C158.025 87.3613 160.605 84.9058 163.826 84.1229L163.025 82.5037Z" fill="#FAAF3A"/>
<path d="M173.754 85.0128C173.79 85.0128 173.808 85.0305 173.843 85.0305C174.306 85.0661 174.733 84.7281 174.769 84.2477C175.641 74.7281 168.452 69.906 168.149 69.7102C167.758 69.4433 167.224 69.5679 166.957 69.9594C166.69 70.3508 166.815 70.8846 167.206 71.1515C167.473 71.3295 173.843 75.6355 173.061 84.1053C173.043 84.5323 173.345 84.9238 173.754 85.0128Z" fill="#39393B"/>
<path d="M166.958 78.3401C167.136 78.3757 167.349 78.3579 167.527 78.2511C168.381 77.8063 170.89 76.8098 172.26 77.4682C172.687 77.6817 173.203 77.5038 173.399 77.0767C173.612 76.6497 173.434 76.1336 173.007 75.9379C170.623 74.7813 167.136 76.5429 166.744 76.7386C166.317 76.9522 166.157 77.4682 166.388 77.8952C166.495 78.1265 166.726 78.2867 166.958 78.3401Z" fill="#39393B"/>
<path d="M185.285 50.2617C185.285 50.2617 177.296 71.9521 176.869 76.3293C176.281 82.2902 168.399 61.8631 176.317 44.4254L185.285 50.2617Z" fill="#39393B"/>
<path d="M318.773 510.121H285.872C285.872 510.121 278.257 473.608 275.712 453.145C273.15 432.665 271.833 384.142 271.833 384.142C271.833 384.142 245.623 392.665 190.747 389.444C69.1635 382.344 115.267 293.02 115.267 293.02C119.377 298.696 150.196 306.508 167.384 309.23C220.178 314.302 260.303 323.27 287.776 335.12C294.395 337.967 300.267 340.992 305.427 344.177C312.047 348.252 316.193 360.654 318.702 376.935C326.193 425.885 318.773 510.121 318.773 510.121Z" fill="#39393B"/>
<path d="M289.947 492.541C289.395 492.541 288.915 492.149 288.79 491.598C284.039 468.11 282.456 438.875 281.175 415.387C280.107 395.903 279.111 377.505 276.602 375.298C274.573 373.501 266.157 374.907 255.516 376.668C234.324 380.192 202.295 385.494 166.993 377.291C147.758 372.807 133.612 363.466 124.964 349.515C110.035 325.458 116.85 295.618 116.921 295.316C117.064 294.675 117.704 294.284 118.345 294.444C118.986 294.586 119.377 295.227 119.217 295.867C119.146 296.152 112.58 325.067 126.993 348.288C135.302 361.686 148.95 370.672 167.544 374.996C202.402 383.11 234.146 377.843 255.16 374.355C267.74 372.273 275.338 371.01 278.203 373.537C281.299 376.277 282.171 389.729 283.559 415.263C284.84 438.679 286.424 467.807 291.139 491.135C291.264 491.775 290.854 492.398 290.214 492.523C290.107 492.523 290.036 492.541 289.947 492.541Z" fill="#585859"/>
<path d="M319.395 493.145H319.377L282.794 492.362C282.135 492.344 281.619 491.811 281.637 491.152C281.655 490.494 282.189 489.978 282.847 489.996L319.431 490.779C320.089 490.796 320.605 491.33 320.587 491.989C320.552 492.647 320.036 493.145 319.395 493.145Z" fill="#585859"/>
<path d="M317.866 552.274H294.645L290.179 525.032L287.723 510.121H316.567L317.029 525.032L317.866 552.274Z" fill="#EA9B7A"/>
<path d="M317.865 552.274H294.644L291.317 531.989L290.178 525.032H317.029L317.242 532.238L317.865 552.274Z" fill="#FAAF3A"/>
<path d="M317.242 532.238L291.317 531.989L290.178 525.032H317.029L317.242 532.238Z" fill="#C77E2E"/>
<path d="M375.161 588.946H287.331C286.673 587.754 286.317 586.082 286.175 584.071C285.623 576.633 287.99 564.783 289.146 557.309C289.289 556.437 289.413 555.619 289.502 554.889C289.662 553.644 289.769 552.594 289.769 551.829C289.769 545.726 295.161 546.776 295.161 546.776C304.04 555.494 314.111 542.434 319.983 546.704C319.983 546.704 320.214 546.882 320.766 547.292C321.264 547.683 322.011 548.288 323.043 549.16C324.538 550.405 326.638 552.22 329.485 554.783C336.46 561.064 348.31 565.192 358.399 569.409C359.68 569.943 360.873 570.477 361.994 571.028C362.83 571.438 363.631 571.847 364.378 572.238C372.634 576.687 375.25 580.957 375.855 584.053C376.442 587.025 375.161 588.946 375.161 588.946Z" fill="#0875F7"/>
<path d="M364.396 572.256C362.136 574.053 357.1 577.665 353.061 577.665C352.883 577.665 352.705 577.665 352.527 577.647C349.68 577.416 339.218 572.274 330.694 567.594C325.819 564.907 321.353 562.274 318.15 560.156C312.901 556.687 311.976 555.37 311.78 554.445C311.015 550.975 316.744 548.573 320.766 547.309C321.264 547.701 322.011 548.306 323.043 549.178C318.061 550.53 313.951 552.665 314.146 553.875C314.645 554.907 319.84 558.857 332.26 565.672C341.744 570.868 350.73 575.05 352.723 575.228C355.428 575.441 359.396 572.986 361.993 571.046C362.865 571.437 363.648 571.847 364.396 572.256Z" fill="#084FC7"/>
<path d="M375.161 588.946H287.331C286.673 587.754 286.317 586.082 286.175 584.071H375.873C376.442 587.025 375.161 588.946 375.161 588.946Z" fill="#084FC7"/>
<path d="M296.3 588.946H293.684C296.282 585.975 298.719 581.402 298.399 574.889C297.972 566.206 292.776 560.37 289.146 557.309C289.289 556.437 289.413 555.619 289.502 554.889C293.399 557.861 299.965 564.391 300.481 574.783C300.801 581.01 298.755 585.655 296.3 588.946Z" fill="#084FC7"/>
<path d="M328.026 559.978C327.385 559.978 326.78 559.534 326.62 558.875C326.424 558.092 326.905 557.309 327.67 557.114L333.15 555.744C333.933 555.548 334.716 556.028 334.912 556.793C335.107 557.576 334.627 558.359 333.862 558.555L328.381 559.925C328.257 559.961 328.132 559.978 328.026 559.978Z" fill="white"/>
<path d="M322.563 555.405C321.904 555.405 321.317 554.96 321.157 554.302C320.961 553.519 321.442 552.736 322.207 552.541L327.687 551.17C328.47 550.975 329.253 551.455 329.449 552.22C329.645 553.003 329.164 553.786 328.399 553.982L322.919 555.352C322.794 555.388 322.687 555.405 322.563 555.405Z" fill="white"/>
<path d="M333.506 563.163C332.866 563.163 332.261 562.719 332.1 562.06C331.905 561.277 332.385 560.494 333.15 560.317L338.631 558.946C339.414 558.751 340.196 559.231 340.392 559.996C340.588 560.779 340.108 561.562 339.342 561.758L333.862 563.128C333.737 563.146 333.613 563.163 333.506 563.163Z" fill="white"/>
<path d="M338.987 566.224C338.346 566.224 337.741 565.779 337.581 565.121C337.385 564.338 337.866 563.555 338.631 563.377L344.111 562.007C344.894 561.811 345.677 562.292 345.873 563.057C346.068 563.84 345.588 564.623 344.823 564.818L339.342 566.188C339.218 566.206 339.111 566.224 338.987 566.224Z" fill="white"/>
<path d="M344.965 569.053C344.325 569.053 343.72 568.608 343.559 567.95C343.364 567.167 343.844 566.384 344.609 566.206L350.09 564.836C350.873 564.64 351.656 565.121 351.851 565.886C352.047 566.669 351.567 567.452 350.801 567.647L345.321 569.018C345.196 569.053 345.09 569.053 344.965 569.053Z" fill="white"/>
<path d="M351.46 571.473C350.801 571.473 350.214 571.028 350.054 570.37C349.858 569.587 350.339 568.804 351.104 568.608L356.584 567.238C357.367 567.042 358.15 567.523 358.346 568.288C358.542 569.071 358.061 569.854 357.296 570.05L351.816 571.42C351.691 571.455 351.566 571.473 351.46 571.473Z" fill="white"/>
<path d="M439.948 291.704V298.999C439.948 303.198 437.421 306.597 434.289 306.597H40.2135C37.0819 306.597 34.5552 303.198 34.5552 298.999V291.704C34.5552 287.504 37.0819 284.106 40.2135 284.106H434.272C437.403 284.106 439.948 287.504 439.948 291.704Z" fill="#21B573"/>
<path d="M439.948 294.017H34.5552V297.362H439.948V294.017Z" fill="#217C58"/>
<path d="M428.097 325.334H57.6868C56.032 325.334 54.6797 323.981 54.6797 322.326V306.49H431.104V322.326C431.104 323.981 429.752 325.334 428.097 325.334Z" fill="#217C58"/>
<path d="M411.46 418.287H80.1958V431.206H411.46V418.287Z" fill="#217C58"/>
<path d="M56.3168 591.242L120.445 325.333H97.9183L33.79 591.242H56.3168Z" fill="#21B573"/>
<path d="M434.912 591.242L370.766 325.333H393.293L457.421 591.242H434.912Z" fill="#21B573"/>
<path d="M70.5194 222.994L63.5718 224.058L71.6025 276.491L78.5501 275.427L70.5194 222.994Z" fill="#FAAF3A"/>
<path d="M70.5333 222.967L63.5938 224.034L65.124 218.732L65.9069 215.974L67.4906 218.358L70.5333 222.967Z" fill="#EA9B7A"/>
<path d="M77.9599 271.61L71.0122 272.674L71.5968 276.491L78.5445 275.427L77.9599 271.61Z" fill="#39393B"/>
<path d="M78.5765 278.501L72.5444 279.426C72.2953 279.462 72.0462 279.284 72.0106 279.035L71.6191 276.455L78.5765 275.387L78.9679 277.967C79.0035 278.234 78.8256 278.465 78.5765 278.501Z" fill="#DF615C"/>
<path d="M67.4911 218.358L65.1245 218.732L65.9074 215.974L67.4911 218.358Z" fill="#39393B"/>
<path d="M77.5668 268.871L70.6191 269.935L71.0367 272.661L77.9844 271.597L77.5668 268.871Z" fill="#C77E2E"/>
<path d="M65.7118 226.347L71.6549 265.173C71.7083 265.476 71.9752 265.671 72.2599 265.618C72.5446 265.565 72.7581 265.298 72.7047 265.013L66.7616 226.187C66.7083 225.903 66.4414 225.689 66.1567 225.742C65.872 225.778 65.6584 226.063 65.7118 226.347Z" fill="#C77E2E"/>
<path d="M68.4345 225.938L74.3776 264.764C74.4309 265.048 74.6978 265.262 74.9825 265.209C75.285 265.155 75.4808 264.888 75.4274 264.604L69.4843 225.778C69.4309 225.493 69.164 225.28 68.8793 225.333C68.5946 225.369 68.3811 225.636 68.4345 225.938Z" fill="#C77E2E"/>
<path d="M83.1164 223.206L76.0879 223.229L76.2623 276.272L83.2908 276.249L83.1164 223.206Z" fill="#21B573"/>
<path d="M83.1139 223.216L76.0854 223.234L78.3808 218.216L79.573 215.6L80.783 218.198L83.1139 223.216Z" fill="#EA9B7A"/>
<path d="M83.2687 272.406L76.2402 272.429L76.2529 276.29L83.2814 276.267L83.2687 272.406Z" fill="#39393B"/>
<path d="M82.829 279.319L76.7258 279.337C76.4589 279.337 76.2632 279.123 76.2632 278.874V276.276L83.2917 276.259V278.856C83.2917 279.106 83.0959 279.319 82.829 279.319Z" fill="#DF615C"/>
<path d="M80.783 218.198L78.3809 218.216L79.573 215.6L80.783 218.198Z" fill="#39393B"/>
<path d="M83.2526 269.63L76.2241 269.653L76.2332 272.411L83.2617 272.388L83.2526 269.63Z" fill="#217C58"/>
<path d="M77.8291 225.849L77.9537 265.12C77.9537 265.422 78.2028 265.654 78.4875 265.654C78.79 265.654 79.0213 265.405 79.0213 265.12L78.8967 225.849C78.8967 225.547 78.6476 225.315 78.3629 225.315C78.0782 225.298 77.8291 225.547 77.8291 225.849Z" fill="#217C58"/>
<path d="M80.5874 225.831L80.712 265.102C80.712 265.404 80.9611 265.636 81.2458 265.636C81.5483 265.636 81.7796 265.387 81.7796 265.102L81.655 225.831C81.655 225.529 81.4059 225.298 81.1212 225.298C80.8365 225.298 80.5874 225.529 80.5874 225.831Z" fill="#217C58"/>
<path d="M88.3011 222.944L80.8433 275.461L87.8022 276.449L95.26 223.932L88.3011 222.944Z" fill="#0875F7"/>
<path d="M95.2493 223.963L88.292 222.967L91.2813 218.323L92.8472 215.92L93.6657 218.661L95.2493 223.963Z" fill="#EA9B7A"/>
<path d="M88.3617 272.674L81.4028 271.686L80.8599 275.509L87.8189 276.497L88.3617 272.674Z" fill="#39393B"/>
<path d="M86.9041 279.444L80.8721 278.59C80.6229 278.554 80.445 278.323 80.4806 278.056L80.8543 275.476L87.8116 276.472L87.4379 279.052C87.3845 279.301 87.1532 279.479 86.9041 279.444Z" fill="#DF615C"/>
<path d="M93.6656 218.661L91.2812 218.323L92.8471 215.92L93.6656 218.661Z" fill="#39393B"/>
<path d="M81.7801 268.925L81.3921 271.656L88.351 272.645L88.7391 269.914L81.7801 268.925Z" fill="#084FC7"/>
<path d="M89.6442 225.796L84.1282 264.675C84.0926 264.978 84.2883 265.245 84.5908 265.28C84.8933 265.316 85.1602 265.12 85.1958 264.817L90.7118 225.938C90.7474 225.636 90.5517 225.369 90.2492 225.333C89.9645 225.298 89.6976 225.511 89.6442 225.796Z" fill="#084FC7"/>
<path d="M92.3844 226.188L86.8684 265.067C86.8328 265.369 87.0286 265.636 87.3311 265.672C87.6336 265.707 87.9005 265.512 87.936 265.209L93.4521 226.33C93.4877 226.027 93.2919 225.761 92.9894 225.725C92.6869 225.689 92.42 225.885 92.3844 226.188Z" fill="#084FC7"/>
<path d="M97.5447 244.194L97.171 247.041L96.8329 249.621L96.3347 253.536L95.9966 256.098L95.4984 260.049L95.1603 262.575L94.6443 266.561L94.324 269.052L93.808 273.073L93.4877 275.529L92.9717 279.586L92.6514 282.006L92.3845 284.106H64.7332L64.4663 282.006L64.146 279.586L63.63 275.529L63.3097 273.073L62.7937 269.052L62.4734 266.561L61.9574 262.575L61.6371 260.049L61.1211 256.098L60.8008 253.536L60.2848 249.621L59.9467 247.041L59.5908 244.194H97.5447Z" fill="#DF615C"/>
<path d="M97.1711 247.041L96.833 249.621H60.2848L59.9468 247.041H97.1711Z" fill="#B11722"/>
<path d="M96.3347 253.536L95.9966 256.099H61.1211L60.8008 253.536H96.3347Z" fill="#B11722"/>
<path d="M95.4985 260.049L95.1604 262.575H61.9575L61.6372 260.049H95.4985Z" fill="#B11722"/>
<path d="M94.6445 266.561L94.3243 269.052H62.7939L62.4736 266.561H94.6445Z" fill="#B11722"/>
<path d="M93.8079 273.073L93.4876 275.529H63.6299L63.3096 273.073H93.8079Z" fill="#B11722"/>
<path d="M92.9717 279.586L92.6514 282.006H64.4663L64.146 279.586H92.9717Z" fill="#B11722"/>
<path d="M437.652 143.091L414.075 242.807L413.453 245.422L411.869 252.13C411.175 255.049 408.595 257.095 405.606 257.095H246.762C242.598 257.095 239.537 253.216 240.498 249.177L266.281 140.119C266.975 137.219 269.555 135.173 272.545 135.173H431.371C435.534 135.173 438.595 139.052 437.652 143.091Z" fill="#39393B"/>
<path d="M414.058 242.789L413.453 245.422H248.523V242.789H414.058Z" fill="#585859"/>
<path d="M310.765 159.835C309.449 166.899 302.651 172.629 295.587 172.629C288.523 172.629 283.861 166.899 285.178 159.835C286.495 152.771 293.292 147.041 300.356 147.041C307.438 147.041 312.082 152.771 310.765 159.835Z" fill="#FAAF3A"/>
<path d="M296.317 157.397C296.05 158.803 295.338 159.959 294.733 159.959C294.111 159.959 293.826 158.821 294.093 157.397C294.36 155.991 295.071 154.835 295.676 154.835C296.299 154.835 296.584 155.974 296.317 157.397Z" fill="#39393B"/>
<path d="M302.99 157.397C302.723 158.803 302.011 159.959 301.406 159.959C300.801 159.959 300.499 158.821 300.766 157.397C301.032 155.991 301.744 154.835 302.349 154.835C302.972 154.835 303.257 155.974 302.99 157.397Z" fill="#39393B"/>
<path d="M296.922 166.08C291.424 166.08 291.192 160.582 291.192 160.529C291.175 160.226 291.424 159.924 291.744 159.87C292.064 159.799 292.313 159.995 292.331 160.297C292.331 160.493 292.545 164.977 297.153 164.977C301.744 164.977 303.63 160.493 303.719 160.297C303.844 159.995 304.182 159.817 304.466 159.87C304.751 159.942 304.893 160.226 304.769 160.529C304.715 160.564 302.42 166.08 296.922 166.08Z" fill="#39393B"/>
<path d="M384.2 219.586C384.342 226.205 395.552 234.497 395.552 234.497C395.552 234.497 408.577 226.205 410.161 219.586C411.869 212.415 403.684 210.209 397.616 215.618C392.723 210.209 384.04 212.415 384.2 219.586Z" fill="#DF615C"/>
<path d="M360.463 200.387C359.698 207.255 353.524 212.806 346.673 212.806C339.823 212.806 334.858 207.237 335.623 200.387C336.388 193.518 342.563 187.967 349.413 187.967C356.282 187.967 361.228 193.536 360.463 200.387Z" fill="#585859"/>
<path d="M278.844 135.173L251.388 257.095H246.762C242.598 257.095 239.537 253.216 240.498 249.177L266.281 140.12C266.975 137.219 269.555 135.155 272.545 135.155H278.844V135.173Z" fill="#585859"/>
<path d="M324.84 257.095L320.018 284.195H335.943L340.765 257.095H324.84Z" fill="white"/>
<path d="M296.21 279.533L299.466 274.96C300.623 273.323 302.509 272.362 304.52 272.362H348.15C350.463 272.362 352.58 273.643 353.648 275.689L355.837 279.889C356.869 281.846 355.445 284.213 353.221 284.213H298.612C296.21 284.195 294.822 281.472 296.21 279.533Z" fill="white"/>
<path d="M205.303 284.177H336.371L337.794 279.23C338.684 276.116 336.353 273.02 333.114 273.02H212.171C210 273.02 208.096 274.462 207.491 276.543L205.303 284.177Z" fill="white"/>
<path d="M377.154 102.611L319.182 102.575C316.94 102.575 315.107 100.742 315.107 98.5002L315.125 62.8773C315.125 60.6353 316.958 58.8026 319.2 58.8026L377.172 58.8382C379.414 58.8382 381.246 60.6709 381.246 62.9129L381.229 98.5358C381.229 100.796 379.414 102.611 377.154 102.611Z" fill="#DF615C"/>
<path d="M373.702 96.0447L368.417 116.009L359.182 97.2369L373.702 96.0447Z" fill="#DF615C"/>
<path d="M362.83 77.4858C361.655 84.9591 347.687 94.3186 347.687 94.3186C347.687 94.3186 334.253 84.9413 333.488 77.4502C332.652 69.3363 342.26 66.863 348.292 72.984C354.645 66.8808 364.111 69.3719 362.83 77.4858Z" fill="white"/>
</svg>
